# Blender 3.3.0
# www.blender.org
o Box
v 0.475000 0.500000 0.975000
v 0.475000 0.475000 1.000000
v 0.500000 0.475000 0.975000
v 0.475000 0.475000 -0.000000
v 0.475000 0.500000 0.025000
v 0.500000 0.475000 0.025000
v 0.500000 -0.475000 0.975000
v 0.475000 -0.475000 1.000000
v 0.475000 -0.500000 0.975000
v 0.500000 -0.475000 0.025000
v 0.475000 -0.500000 0.025000
v 0.475000 -0.475000 -0.000000
v -0.475000 0.500000 0.975000
v -0.500000 0.475000 0.975000
v -0.475000 0.475000 1.000000
v -0.500000 0.475000 0.025000
v -0.475000 0.500000 0.025000
v -0.475000 0.475000 -0.000000
v -0.500000 -0.475000 0.975000
v -0.475000 -0.500000 0.975000
v -0.475000 -0.475000 1.000000
v -0.475000 -0.475000 -0.000000
v -0.475000 -0.500000 0.025000
v -0.500000 -0.475000 0.025000
v -0.406125 0.406125 0.001250
v -0.406125 -0.406125 0.001250
v -0.498750 -0.406125 0.093875
v -0.498750 0.406125 0.093875
v 0.406125 0.406125 0.001250
v -0.406125 0.498750 0.093875
v 0.406125 0.498750 0.093875
v 0.498750 0.406125 0.906125
v 0.498750 0.406125 0.093875
v 0.406125 0.498750 0.906125
v -0.406125 -0.498750 0.093875
v -0.406125 -0.498750 0.906125
v -0.498750 -0.406125 0.906125
v 0.406125 -0.498750 0.906125
v 0.406125 -0.498750 0.093875
v 0.498750 -0.406125 0.093875
v 0.498750 -0.406125 0.906125
v -0.406125 0.498750 0.906125
v -0.498750 0.406125 0.906125
v 0.406125 -0.406125 0.998750
v -0.406125 -0.406125 0.998750
v 0.406125 0.406125 0.998750
v 0.406125 -0.406125 0.001250
v -0.406125 0.406125 0.998750
v -0.406125 0.406125 0.023750
v -0.406125 -0.406125 0.023750
v -0.476250 -0.406125 0.093875
v -0.476250 0.406125 0.093875
v 0.406125 0.406125 0.023750
v -0.406125 0.476250 0.093875
v 0.406125 0.476250 0.093875
v 0.476250 0.406125 0.906125
v 0.476250 0.406125 0.093875
v 0.406125 0.476250 0.906125
v -0.406125 -0.476250 0.093875
v -0.406125 -0.476250 0.906125
v -0.476250 -0.406125 0.906125
v 0.406125 -0.476250 0.906125
v 0.406125 -0.476250 0.093875
v 0.476250 -0.406125 0.093875
v 0.476250 -0.406125 0.906125
v -0.406125 0.476250 0.906125
v -0.476250 0.406125 0.906125
v 0.406125 -0.406125 0.976250
v -0.406125 -0.406125 0.976250
v 0.406125 0.406125 0.976250
v 0.406125 -0.406125 0.023750
v -0.406125 0.406125 0.976250
vn -0.0181 -0.0000 -0.9998
vn -0.9998 0.0181 -0.0000
vn -0.0181 -0.0000 0.9998
vn -0.0000 0.9998 -0.0181
vn 0.0181 -0.9998 -0.0000
vn 0.5774 0.5774 0.5773
vn 0.5773 0.5774 -0.5774
vn 0.5774 -0.5774 0.5773
vn 0.5773 -0.5774 -0.5774
vn -0.5774 0.5774 0.5773
vn -0.5773 0.5774 -0.5774
vn -0.5774 -0.5774 0.5773
vn -0.5773 -0.5774 -0.5774
vn -0.7071 -0.0000 -0.7071
vn -0.0000 0.7071 -0.7071
vn 0.7071 0.7071 -0.0000
vn -0.7071 -0.7071 -0.0000
vn 0.7071 -0.7071 -0.0000
vn -0.7071 0.7071 -0.0000
vn -0.0000 -0.7071 0.7071
vn 0.7071 -0.0000 0.7071
vn -0.0000 -0.7071 -0.7071
vn -0.7071 -0.0000 0.7071
vn -0.0000 0.7071 0.7071
vn 0.7071 -0.0000 -0.7071
vn -0.0000 -0.9998 -0.0181
vn -0.0000 -1.0000 -0.0000
vn -1.0000 -0.0000 -0.0000
vn -0.0000 1.0000 -0.0000
vn -0.0000 -0.0000 -1.0000
vn 0.0181 -0.0000 -0.9998
vn 0.9998 -0.0000 -0.0181
vn -0.0181 -0.9998 -0.0000
vn 0.9998 -0.0000 0.0181
vn -0.9998 -0.0000 0.0181
vn -0.0000 0.0181 -0.9998
vn 0.9998 0.0181 -0.0000
vn -0.0000 -0.0181 -0.9998
vn -0.0000 -0.9998 0.0181
vn 0.0181 0.9998 -0.0000
vn -0.0000 0.9998 0.0181
vn 0.0181 -0.0000 0.9998
vn -0.9998 -0.0181 -0.0000
vn 0.9998 -0.0181 -0.0000
vn -0.9998 -0.0000 -0.0181
vn -0.0000 0.0181 0.9998
vn -0.0181 0.9998 -0.0000
vn -0.0000 -0.0181 0.9998
vn -0.0000 -0.0000 1.0000
vn 1.0000 -0.0000 -0.0000
vt 0.618750 0.493750
vt 0.631250 0.506250
vt 0.625000 0.493750
vt 0.618750 0.500000
vt 0.618750 0.506250
vt 0.368750 0.506250
vt 0.368750 0.500000
vt 0.381250 0.493750
vt 0.375000 0.506250
vt 0.381250 0.506250
vt 0.618750 0.750000
vt 0.618750 0.743750
vt 0.631250 0.743750
vt 0.625000 0.756250
vt 0.618750 0.756250
vt 0.375000 0.743750
vt 0.381250 0.743750
vt 0.381250 0.756250
vt 0.368750 0.750000
vt 0.368750 0.743750
vt 0.618750 0.250000
vt 0.618750 0.256250
vt 0.618750 0.243750
vt 0.625000 0.243750
vt 0.625000 0.256250
vt 0.125000 0.506250
vt 0.381250 0.243750
vt 0.381250 0.256250
vt 0.131250 0.500000
vt 0.131250 0.506250
vt 0.618750 0.006250
vt 0.618750 0.000000
vt 0.618750 0.993750
vt 0.625000 0.993750
vt 0.625000 0.006250
vt 0.131250 0.743750
vt 0.381250 0.000000
vt 0.131250 0.750000
vt 0.381250 0.006250
vt 0.125000 0.743750
vt 0.131250 0.506250
vt 0.131250 0.743750
vt 0.381250 0.006250
vt 0.125000 0.743750
vt 0.125000 0.506250
vt 0.381250 0.243750
vt 0.368750 0.506250
vt 0.381250 0.256250
vt 0.131250 0.500000
vt 0.368750 0.500000
vt 0.381250 0.493750
vt 0.618750 0.506250
vt 0.381250 0.506250
vt 0.618750 0.493750
vt 0.131250 0.750000
vt 0.381250 0.000000
vt 0.618750 0.000000
vt 0.618750 0.993750
vt 0.618750 0.006250
vt 0.618750 0.756250
vt 0.381250 0.756250
vt 0.368750 0.750000
vt 0.381250 0.743750
vt 0.618750 0.743750
vt 0.618750 0.256250
vt 0.618750 0.243750
vt 0.631250 0.743750
vt 0.625000 0.756250
vt 0.625000 0.993750
vt 0.625000 0.006250
vt 0.625000 0.493750
vt 0.631250 0.506250
vt 0.368750 0.743750
vt 0.625000 0.243750
vt 0.625000 0.256250
vt 0.131250 0.506250
vt 0.131250 0.743750
vt 0.381250 0.006250
vt 0.125000 0.743750
vt 0.381250 0.243750
vt 0.125000 0.506250
vt 0.368750 0.506250
vt 0.381250 0.256250
vt 0.131250 0.500000
vt 0.381250 0.493750
vt 0.368750 0.500000
vt 0.618750 0.506250
vt 0.381250 0.506250
vt 0.618750 0.493750
vt 0.381250 0.993750
vt 0.381250 0.000000
vt 0.131250 0.750000
vt 0.618750 0.993750
vt 0.618750 0.000000
vt 0.618750 0.006250
vt 0.618750 0.756250
vt 0.381250 0.756250
vt 0.368750 0.750000
vt 0.381250 0.743750
vt 0.618750 0.743750
vt 0.618750 0.256250
vt 0.618750 0.243750
vt 0.625000 0.756250
vt 0.631250 0.743750
vt 0.625000 0.993750
vt 0.868750 0.743750
vt 0.625000 0.006250
vt 0.625000 0.493750
vt 0.631250 0.506250
vt 0.368750 0.743750
vt 0.625000 0.256250
vt 0.868750 0.506250
vt 0.625000 0.243750
s 0
f 12/20/1 29/47/1 4/6/1
f 24/39/2 37/59/2 27/43/2
f 2/2/3 44/67/3 8/13/3
f 1/1/4 42/65/4 13/22/4
f 23/37/5 36/57/5 20/32/5
f 1/1/6 2/3/6 3/4/6
f 4/6/7 5/7/7 6/9/7
f 7/11/8 8/14/8 9/15/8
f 10/16/9 11/19/9 12/20/9
f 13/21/10 14/23/10 15/24/10
f 16/26/11 17/29/11 18/30/11
f 19/31/12 20/32/12 21/35/12
f 22/36/13 23/38/13 24/40/13
f 22/36/14 16/26/14 18/30/14
f 18/30/15 5/7/15 4/6/15
f 6/10/16 1/1/16 3/5/16
f 20/32/17 24/39/17 23/37/17
f 11/18/18 7/12/18 9/15/18
f 17/28/19 14/23/19 13/22/19
f 21/34/20 9/15/20 8/14/20
f 8/13/21 3/5/21 2/2/21
f 12/20/22 23/38/22 22/36/22
f 15/24/23 19/31/23 21/35/23
f 2/3/24 13/22/24 15/25/24
f 4/6/25 10/17/25 12/20/25
f 20/33/26 38/60/26 9/15/26
f 48/75/27 70/108/27 46/71/27
f 31/51/28 58/89/28 34/54/28
f 44/68/29 69/105/29 45/69/29
f 43/66/30 61/95/30 37/59/30
f 32/52/27 57/88/27 33/53/27
f 28/46/27 67/102/27 43/66/27
f 18/30/31 26/42/31 22/36/31
f 7/12/32 32/52/32 3/5/32
f 11/18/33 38/60/33 39/61/33
f 6/10/34 40/63/34 10/17/34
f 24/40/35 28/45/35 16/26/35
f 22/36/36 47/73/36 12/20/36
f 10/17/37 41/64/37 7/12/37
f 4/6/38 25/41/38 18/30/38
f 11/19/39 35/55/39 23/38/39
f 17/28/40 42/65/40 30/48/40
f 17/29/41 31/50/41 5/7/41
f 21/35/42 48/74/42 15/24/42
f 16/27/43 43/66/43 14/23/43
f 6/10/44 32/52/44 33/53/44
f 14/23/45 37/59/45 19/31/45
f 8/14/46 45/69/46 21/34/46
f 5/8/47 34/54/47 1/1/47
f 15/25/48 46/71/48 2/3/48
f 53/82/30 50/77/30 49/76/30
f 61/95/28 52/80/28 51/78/28
f 62/96/27 59/90/27 63/97/27
f 72/112/49 68/104/49 70/109/49
f 56/87/50 64/99/50 57/88/50
f 66/101/29 55/85/29 54/83/29
f 36/58/30 62/96/30 38/60/30
f 35/56/50 60/94/50 36/57/50
f 34/54/30 66/101/30 42/65/30
f 46/72/28 68/104/28 44/67/28
f 37/59/29 51/78/29 27/43/29
f 47/73/28 53/82/28 29/47/28
f 25/41/50 50/77/50 26/42/50
f 41/64/30 56/87/30 32/52/30
f 38/60/28 63/97/28 39/61/28
f 33/53/49 64/99/49 40/63/49
f 27/44/49 52/81/49 28/45/49
f 26/42/29 71/110/29 47/73/29
f 40/63/29 65/100/29 41/64/29
f 29/47/27 49/76/27 25/41/27
f 39/62/49 59/92/49 35/55/49
f 42/65/50 54/83/50 30/48/50
f 30/49/49 55/86/49 31/50/49
f 45/70/50 72/113/50 48/74/50
f 12/20/1 47/73/1 29/47/1
f 24/39/2 19/31/2 37/59/2
f 2/2/3 46/72/3 44/67/3
f 1/1/4 34/54/4 42/65/4
f 23/37/5 35/56/5 36/57/5
f 22/36/14 24/40/14 16/26/14
f 18/30/15 17/29/15 5/7/15
f 6/10/16 5/8/16 1/1/16
f 20/32/17 19/31/17 24/39/17
f 11/18/18 10/17/18 7/12/18
f 17/28/19 16/27/19 14/23/19
f 21/34/20 20/33/20 9/15/20
f 8/13/21 7/12/21 3/5/21
f 12/20/22 11/19/22 23/38/22
f 15/24/23 14/23/23 19/31/23
f 2/3/24 1/1/24 13/22/24
f 4/6/25 6/10/25 10/17/25
f 20/33/26 36/58/26 38/60/26
f 48/75/27 72/111/27 70/108/27
f 31/51/28 55/85/28 58/89/28
f 44/68/29 68/103/29 69/105/29
f 43/66/30 67/102/30 61/95/30
f 32/52/27 56/87/27 57/88/27
f 28/46/27 52/80/27 67/102/27
f 18/30/31 25/41/31 26/42/31
f 7/12/32 41/64/32 32/52/32
f 11/18/33 9/15/33 38/60/33
f 6/10/34 33/53/34 40/63/34
f 24/40/35 27/44/35 28/45/35
f 22/36/36 26/42/36 47/73/36
f 10/17/37 40/63/37 41/64/37
f 4/6/38 29/47/38 25/41/38
f 11/19/39 39/62/39 35/55/39
f 17/28/40 13/22/40 42/65/40
f 17/29/41 30/49/41 31/50/41
f 21/35/42 45/70/42 48/74/42
f 16/27/43 28/46/43 43/66/43
f 6/10/44 3/5/44 32/52/44
f 14/23/45 43/66/45 37/59/45
f 8/14/46 44/68/46 45/69/46
f 5/8/47 31/51/47 34/54/47
f 15/25/48 48/75/48 46/71/48
f 53/82/30 71/110/30 50/77/30
f 61/95/28 67/102/28 52/80/28
f 62/96/27 60/93/27 59/90/27
f 72/112/49 69/106/49 68/104/49
f 56/87/50 65/100/50 64/99/50
f 66/101/29 58/89/29 55/85/29
f 36/58/30 60/93/30 62/96/30
f 35/56/50 59/91/50 60/94/50
f 34/54/30 58/89/30 66/101/30
f 46/72/28 70/109/28 68/104/28
f 37/59/29 61/95/29 51/78/29
f 47/73/28 71/110/28 53/82/28
f 25/41/50 49/76/50 50/77/50
f 41/64/30 65/100/30 56/87/30
f 38/60/28 62/96/28 63/97/28
f 33/53/49 57/88/49 64/99/49
f 27/44/49 51/79/49 52/81/49
f 26/42/29 50/77/29 71/110/29
f 40/63/29 64/99/29 65/100/29
f 29/47/27 53/82/27 49/76/27
f 39/62/49 63/98/49 59/92/49
f 42/65/50 66/101/50 54/83/50
f 30/49/49 54/84/49 55/86/49
f 45/70/50 69/107/50 72/113/50
