# Blender 5.1.2
# www.blender.org
o Box
v -0.051901 0.488849 0.832119
v 0.492699 0.054110 0.832119
v 0.046099 0.488849 0.832119
v 0.347119 -0.049198 0.993096
v 0.046099 0.488849 0.150119
v 0.492699 -0.043890 0.832119
v -0.051901 0.488849 0.150119
v 0.347119 0.045265 0.011548
v -0.051901 0.478850 0.832119
v 0.492699 -0.043890 0.150119
v 0.046099 0.478850 0.832119
v 0.347119 0.048802 0.993096
v 0.492699 0.054110 0.150119
v 0.046099 0.478850 0.150119
v -0.485000 -0.049884 0.832119
v -0.051901 0.478850 0.150119
v 0.482699 0.054110 0.832119
v -0.334881 0.048802 0.993096
v 0.482699 -0.043890 0.832119
v 0.347119 -0.052735 0.011548
v -0.334881 -0.049198 0.993096
v 0.482699 -0.043890 0.150119
v 0.482699 0.054110 0.150119
v 0.046985 -0.485000 0.832119
v 0.347119 -0.049198 0.983096
v -0.334881 -0.052735 0.011548
v 0.347119 0.048802 0.983096
v 0.475000 0.500000 0.975000
v -0.334881 0.045265 0.011548
v -0.334881 0.048802 0.983096
v -0.334881 -0.049198 0.983096
v -0.485000 0.048116 0.832119
v 0.347119 0.045265 0.021548
v -0.485000 0.048116 0.150119
v 0.347119 -0.052735 0.021548
v 0.475000 0.475000 1.000000
v -0.334881 -0.052735 0.021548
v -0.051015 -0.485000 0.832119
v -0.485000 -0.049884 0.150119
v -0.334881 0.045265 0.021548
v -0.051015 -0.485000 0.150119
v 0.500000 0.475000 0.975000
v 0.046985 -0.485000 0.150119
v 0.475000 0.475000 -0.000000
v 0.475000 0.500000 0.025000
v 0.500000 0.475000 0.025000
v 0.500000 -0.475000 0.975000
v 0.475000 -0.475000 1.000000
v 0.475000 -0.500000 0.975000
v 0.500000 -0.475000 0.025000
v 0.475000 -0.500000 0.025000
v 0.475000 -0.475000 -0.000000
v -0.475000 0.500000 0.975000
v -0.500000 0.475000 0.975000
v -0.475000 0.475000 1.000000
v -0.500000 0.475000 0.025000
v -0.475000 0.500000 0.025000
v -0.475000 0.475000 -0.000000
v -0.500000 -0.475000 0.975000
v -0.475000 -0.500000 0.975000
v -0.475000 -0.475000 1.000000
v -0.475000 -0.475000 -0.000000
v -0.475000 -0.500000 0.025000
v -0.500000 -0.475000 0.025000
v -0.406125 0.406125 0.001250
v -0.406125 -0.406125 0.001250
v -0.498750 -0.406125 0.093875
v -0.498750 0.406125 0.093875
v 0.406125 0.406125 0.001250
v -0.406125 0.498750 0.093875
v 0.406125 0.498750 0.093875
v 0.498750 0.406125 0.906125
v 0.498750 0.406125 0.093875
v 0.406125 0.498750 0.906125
v -0.406125 -0.498750 0.093875
v -0.406125 -0.498750 0.906125
v -0.498750 -0.406125 0.906125
v 0.406125 -0.498750 0.906125
v 0.406125 -0.498750 0.093875
v 0.498750 -0.406125 0.093875
v 0.498750 -0.406125 0.906125
v -0.406125 0.498750 0.906125
v -0.498750 0.406125 0.906125
v 0.406125 -0.406125 0.998750
v -0.406125 -0.406125 0.998750
v 0.406125 0.406125 0.998750
v 0.406125 -0.406125 0.001250
v -0.406125 0.406125 0.998750
v -0.406125 0.406125 0.023750
v -0.406125 -0.406125 0.023750
v -0.476250 -0.406125 0.093875
v -0.476250 0.406125 0.093875
v 0.406125 0.406125 0.023750
v -0.406125 0.476250 0.093875
v 0.406125 0.476250 0.093875
v 0.476250 0.406125 0.906125
v 0.476250 0.406125 0.093875
v 0.406125 0.476250 0.906125
v -0.406125 -0.476250 0.093875
v -0.406125 -0.476250 0.906125
v -0.476250 -0.406125 0.906125
v 0.406125 -0.476250 0.906125
v 0.406125 -0.476250 0.093875
v 0.476250 -0.406125 0.093875
v 0.476250 -0.406125 0.906125
v -0.406125 0.476250 0.906125
v -0.476250 0.406125 0.906125
v 0.406125 -0.406125 0.976250
v -0.406125 -0.406125 0.976250
v 0.406125 0.406125 0.976250
v 0.406125 -0.406125 0.023750
v -0.406125 0.406125 0.976250
v -0.051015 -0.476250 0.832119
v 0.046985 -0.476250 0.832119
v -0.051015 -0.476250 0.150119
v 0.046985 -0.476250 0.150119
v -0.476250 -0.049884 0.832119
v -0.476250 0.048116 0.832119
v -0.476250 -0.049884 0.150119
v -0.476250 0.048116 0.150119
vn -0.0181 -0.0000 -0.9998
vn -0.9998 0.0181 -0.0000
vn -0.0181 -0.0000 0.9998
vn -0.0000 0.9998 -0.0181
vn 0.0181 -0.9998 -0.0000
vn 0.5774 0.5774 0.5773
vn 0.5773 0.5774 -0.5774
vn 0.5774 -0.5774 0.5773
vn 0.5773 -0.5774 -0.5774
vn -0.5774 0.5774 0.5773
vn -0.5773 0.5774 -0.5774
vn -0.5774 -0.5774 0.5773
vn -0.5773 -0.5774 -0.5774
vn -0.7071 -0.0000 -0.7071
vn -0.0000 0.7071 -0.7071
vn 0.7071 0.7071 -0.0000
vn -0.7071 -0.7071 -0.0000
vn 0.7071 -0.7071 -0.0000
vn -0.7071 0.7071 -0.0000
vn -0.0000 -0.7071 0.7071
vn 0.7071 -0.0000 0.7071
vn -0.0000 -0.7071 -0.7071
vn -0.7071 -0.0000 0.7071
vn -0.0000 0.7071 0.7071
vn 0.7071 -0.0000 -0.7071
vn -0.0000 -0.9998 -0.0181
vn -0.0000 -1.0000 -0.0000
vn -1.0000 -0.0000 -0.0000
vn -0.0000 1.0000 -0.0000
vn -0.0000 -0.0000 -1.0000
vn 0.0181 -0.0000 -0.9998
vn 0.9998 -0.0000 -0.0181
vn -0.0181 -0.9998 -0.0000
vn 0.9998 -0.0000 0.0181
vn -0.9998 -0.0000 0.0181
vn -0.0000 0.0181 -0.9998
vn 0.9998 0.0181 -0.0000
vn -0.0000 -0.0181 -0.9998
vn -0.0000 -0.9998 0.0181
vn 0.0181 0.9998 -0.0000
vn -0.0000 0.9998 0.0181
vn 0.0181 -0.0000 0.9998
vn -0.9998 -0.0181 -0.0000
vn 0.9998 -0.0181 -0.0000
vn -0.9998 -0.0000 -0.0181
vn -0.0000 0.0181 0.9998
vn -0.0181 0.9998 -0.0000
vn -0.0000 -0.0181 0.9998
vn -0.0000 -0.0000 1.0000
vn 1.0000 -0.0000 -0.0000
vt 0.552088 0.261566
vt 0.794234 0.242638
vt 0.813162 0.261566
vt 0.007362 0.268436
vt 0.026290 0.026290
vt 0.026290 0.249508
vt 0.813162 0.262549
vt 0.571016 0.281477
vt 0.552088 0.262549
vt 0.261566 0.283160
vt 0.019420 0.302088
vt 0.000492 0.283160
vt 0.523623 0.544235
vt 0.504695 0.302088
vt 0.523623 0.283160
vt 0.276290 0.007362
vt 0.283160 0.000492
vt 0.283160 0.007362
vt 0.283160 0.275307
vt 0.276290 0.268436
vt 0.283160 0.268436
vt 0.544234 0.007362
vt 0.544234 0.000492
vt 0.551105 0.007362
vt 0.544234 0.268436
vt 0.551105 0.268436
vt 0.544234 0.275307
vt 0.275307 0.007362
vt 0.268436 0.007362
vt 0.268436 0.000492
vt 0.268436 0.268436
vt 0.275307 0.268436
vt 0.268436 0.275307
vt 0.007362 0.007362
vt 0.000492 0.007362
vt 0.007362 0.000492
vt 0.007362 0.275307
vt 0.000492 0.268436
vt 0.000492 0.551105
vt 0.261566 0.544235
vt 0.261566 0.551105
vt 0.523623 0.276290
vt 0.262549 0.283160
vt 0.262549 0.276290
vt 0.262549 0.551105
vt 0.523623 0.551105
vt 0.261566 0.276290
vt 0.000492 0.276290
vt 0.281477 0.302088
vt 0.842061 0.000492
vt 0.848244 0.223710
vt 0.842061 0.223710
vt 0.869744 0.223710
vt 0.863561 0.000492
vt 0.869744 0.000492
vt 0.842061 0.224693
vt 0.848244 0.447912
vt 0.842061 0.447912
vt 0.884077 0.223710
vt 0.877894 0.000492
vt 0.884077 0.000492
vt 0.863561 0.224693
vt 0.869744 0.447912
vt 0.863561 0.447912
vt 0.869744 0.672114
vt 0.863561 0.448895
vt 0.869744 0.448895
vt 0.813162 0.000492
vt 0.571016 0.019420
vt 0.552088 0.000492
vt 0.302088 0.026290
vt 0.262549 0.544235
vt 0.281477 0.525307
vt 0.525307 0.249508
vt 0.249508 0.249508
vt 0.571016 0.242638
vt 0.525307 0.026290
vt 0.794234 0.019420
vt 0.504695 0.525307
vt 0.000492 0.544235
vt 0.019420 0.525307
vt 0.242638 0.525307
vt 0.552088 0.523623
vt 0.794234 0.504695
vt 0.813162 0.523623
vt 0.249508 0.026290
vt 0.302088 0.249508
vt 0.571016 0.504695
vt 0.242638 0.302088
vt 0.794234 0.281477
vt 0.447912 0.999508
vt 0.224693 0.776290
vt 0.447912 0.776290
vt 0.020830 0.677406
vt 0.000492 0.775307
vt 0.000492 0.552088
vt 0.208253 0.650474
vt 0.223710 0.775307
vt 0.208253 0.677406
vt 0.245031 0.649678
vt 0.447912 0.552088
vt 0.432455 0.649678
vt 0.432455 0.676610
vt 0.447912 0.775307
vt 0.224693 0.775307
vt 0.672114 0.999508
vt 0.448895 0.776290
vt 0.672114 0.776290
vt 0.448895 0.775307
vt 0.672114 0.552088
vt 0.672114 0.775307
vt 0.000492 0.999508
vt 0.223710 0.776290
vt 0.223710 0.999508
vt 0.849227 0.000492
vt 0.855411 0.223710
vt 0.849227 0.223710
vt 0.869744 0.896315
vt 0.863561 0.673097
vt 0.869744 0.673097
vt 0.855411 0.447912
vt 0.849227 0.224693
vt 0.855411 0.224693
vt 0.842061 0.448895
vt 0.848244 0.672114
vt 0.842061 0.672114
vt 0.870727 0.000492
vt 0.876911 0.223710
vt 0.870727 0.223710
vt 0.862577 0.223710
vt 0.856394 0.000492
vt 0.862577 0.000492
vt 0.862577 0.447912
vt 0.856394 0.224693
vt 0.862577 0.224693
vt 0.877894 0.224693
vt 0.884077 0.447912
vt 0.877894 0.447912
vt 0.870727 0.224693
vt 0.876911 0.447912
vt 0.870727 0.447912
vt 0.884077 0.672114
vt 0.877894 0.448895
vt 0.884077 0.448895
vt 0.877894 0.673097
vt 0.884077 0.896315
vt 0.877894 0.896315
vt 0.862577 0.672114
vt 0.856394 0.448895
vt 0.862577 0.448895
vt 0.876911 0.672114
vt 0.870727 0.448895
vt 0.876911 0.448895
vt 0.862577 0.896315
vt 0.856394 0.673097
vt 0.862577 0.673097
vt 0.849227 0.448895
vt 0.855411 0.672114
vt 0.849227 0.672114
vt 0.870727 0.673097
vt 0.876911 0.896315
vt 0.870727 0.896315
vt 0.855411 0.896315
vt 0.849227 0.673097
vt 0.855411 0.673097
vt 0.842061 0.673097
vt 0.848244 0.896315
vt 0.842061 0.896315
vt 0.811689 0.963714
vt 0.784757 0.776290
vt 0.811689 0.776290
vt 0.784757 0.963714
vt 0.888792 0.565713
vt 0.891197 0.753137
vt 0.888792 0.753137
vt 0.892523 0.627559
vt 0.894928 0.600627
vt 0.894928 0.627559
vt 0.892523 0.628542
vt 0.894928 0.655474
vt 0.892523 0.655474
vt 0.891197 0.941544
vt 0.888792 0.754120
vt 0.891197 0.754120
vt 0.841078 0.187915
vt 0.814146 0.000492
vt 0.841078 0.000492
vt 0.814146 0.187915
vt 0.892523 0.000492
vt 0.894928 0.187915
vt 0.892523 0.187915
vt 0.892523 0.656457
vt 0.894928 0.683389
vt 0.892523 0.683389
vt 0.894928 0.711304
vt 0.892523 0.684372
vt 0.894928 0.684372
vt 0.894928 0.376323
vt 0.892523 0.188899
vt 0.894928 0.188899
vt 0.673097 0.776290
vt 0.700029 0.963714
vt 0.673097 0.963714
vt 0.700029 0.776290
vt 0.701012 0.963714
vt 0.701012 0.776290
vt 0.727944 0.776290
vt 0.727944 0.963714
vt 0.887809 0.187915
vt 0.885061 0.000492
vt 0.887809 0.000492
vt 0.895272 0.404238
vt 0.892523 0.377306
vt 0.895272 0.377306
vt 0.895272 0.432153
vt 0.892523 0.405221
vt 0.895272 0.405221
vt 0.887809 0.376323
vt 0.885061 0.188899
vt 0.887809 0.188899
vt 0.755859 0.963714
vt 0.728927 0.776290
vt 0.755859 0.776290
vt 0.728927 0.963714
vt 0.783774 0.776290
vt 0.783774 0.963714
vt 0.756842 0.963714
vt 0.756842 0.776290
vt 0.885061 0.377306
vt 0.887809 0.564730
vt 0.885061 0.564730
vt 0.892523 0.433136
vt 0.895272 0.460068
vt 0.892523 0.460068
vt 0.892523 0.461051
vt 0.895272 0.487983
vt 0.892523 0.487983
vt 0.885061 0.565713
vt 0.887809 0.753137
vt 0.885061 0.753137
vt 0.841077 0.376323
vt 0.814146 0.188899
vt 0.841077 0.188899
vt 0.814146 0.376323
vt 0.814146 0.564730
vt 0.814146 0.377306
vt 0.841077 0.377306
vt 0.841077 0.564730
vt 0.885061 0.754120
vt 0.887809 0.941544
vt 0.885061 0.941544
vt 0.895272 0.515898
vt 0.892523 0.488966
vt 0.895272 0.488966
vt 0.892523 0.516882
vt 0.895272 0.543813
vt 0.892523 0.543813
vt 0.891540 0.187915
vt 0.888792 0.000492
vt 0.891540 0.000492
vt 0.841078 0.753137
vt 0.814146 0.565713
vt 0.841078 0.565713
vt 0.814146 0.753137
vt 0.814146 0.941544
vt 0.814146 0.754120
vt 0.841077 0.754120
vt 0.841077 0.941544
vt 0.888792 0.188899
vt 0.891540 0.376323
vt 0.888792 0.376323
vt 0.895272 0.571729
vt 0.892523 0.544797
vt 0.895272 0.544797
vt 0.895272 0.599644
vt 0.892523 0.572712
vt 0.895272 0.572712
vt 0.891540 0.564730
vt 0.888792 0.377306
vt 0.891540 0.377306
vt 0.848244 0.000492
vt 0.863561 0.223710
vt 0.848244 0.224693
vt 0.877894 0.223710
vt 0.869744 0.224693
vt 0.863561 0.672114
vt 0.224693 0.999508
vt 0.223710 0.552088
vt 0.020830 0.650474
vt 0.224693 0.552088
vt 0.245031 0.676610
vt 0.448895 0.999508
vt 0.448895 0.552088
vt 0.000492 0.776290
vt 0.855411 0.000492
vt 0.863561 0.896315
vt 0.849227 0.447912
vt 0.848244 0.448895
vt 0.876911 0.000492
vt 0.856394 0.223710
vt 0.856394 0.447912
vt 0.884077 0.224693
vt 0.876911 0.224693
vt 0.877894 0.672114
vt 0.884077 0.673097
vt 0.856394 0.672114
vt 0.870727 0.672114
vt 0.856394 0.896315
vt 0.855411 0.448895
vt 0.876911 0.673097
vt 0.849227 0.896315
vt 0.848244 0.673097
vt 0.891197 0.565713
vt 0.892523 0.600627
vt 0.894928 0.628542
vt 0.888792 0.941544
vt 0.894928 0.000492
vt 0.894928 0.656457
vt 0.892523 0.711304
vt 0.892523 0.376323
vt 0.885061 0.187915
vt 0.892523 0.404238
vt 0.892523 0.432153
vt 0.885061 0.376323
vt 0.887809 0.377306
vt 0.895272 0.433136
vt 0.895272 0.461051
vt 0.887809 0.565713
vt 0.887809 0.754120
vt 0.892523 0.515898
vt 0.895272 0.516882
vt 0.888792 0.187915
vt 0.891540 0.188899
vt 0.892523 0.571729
vt 0.892523 0.599644
vt 0.888792 0.564730
s 0
f 52/1/1 69/2/1 44/3/1
f 64/4/2 77/5/2 67/6/2
f 36/7/3 84/8/3 48/9/3
f 28/10/4 82/11/4 53/12/4
f 63/13/5 76/14/5 60/15/5
f 28/16/6 36/17/6 42/18/6
f 44/19/7 45/20/7 46/21/7
f 47/22/8 48/23/8 49/24/8
f 50/25/9 51/26/9 52/27/9
f 53/28/10 54/29/10 55/30/10
f 56/31/11 57/32/11 58/33/11
f 59/34/12 60/35/12 61/36/12
f 62/37/13 63/38/13 64/4/13
f 62/37/14 56/31/14 58/33/14
f 58/39/15 45/40/15 44/41/15
f 46/21/16 28/16/16 42/18/16
f 60/35/17 64/4/17 63/38/17
f 51/26/18 47/22/18 49/24/18
f 57/32/19 54/29/19 53/28/19
f 61/42/20 49/43/20 48/44/20
f 48/23/21 42/18/21 36/17/21
f 52/45/22 63/13/22 62/46/22
f 55/30/23 59/34/23 61/36/23
f 36/47/24 53/12/24 55/48/24
f 44/19/25 50/25/25 52/27/25
f 60/15/26 78/49/26 49/43/26
f 88/50/27 110/51/27 86/52/27
f 71/53/28 98/54/28 74/55/28
f 84/56/29 109/57/29 85/58/29
f 83/59/30 101/60/30 77/61/30
f 72/62/27 97/63/27 73/64/27
f 68/65/27 107/66/27 83/67/27
f 58/68/31 66/69/31 62/70/31
f 47/22/32 72/71/32 42/18/32
f 51/72/33 78/49/33 79/73/33
f 46/21/34 80/74/34 50/25/34
f 64/4/35 68/75/35 56/31/35
f 62/70/36 87/76/36 52/1/36
f 50/25/37 81/77/37 47/22/37
f 44/3/38 65/78/38 58/68/38
f 51/72/39 75/79/39 63/13/39
f 57/80/40 82/11/40 70/81/40
f 57/80/41 71/82/41 45/40/41
f 61/83/42 88/84/42 55/85/42
f 56/31/43 83/86/43 54/29/43
f 46/21/44 72/71/44 73/87/44
f 54/29/45 77/5/45 59/34/45
f 48/9/46 85/88/46 61/83/46
f 45/40/47 74/89/47 28/10/47
f 55/85/48 86/90/48 36/7/48
f 93/91/30 90/92/30 89/93/30
f 117/94/28 101/95/28 107/96/28
f 120/97/28 91/98/28 119/99/28
f 113/100/27 99/101/27 115/102/27
f 116/103/27 103/104/27 102/105/27
f 112/106/49 108/107/49 110/108/49
f 96/109/50 104/110/50 97/111/50
f 106/112/29 95/113/29 94/114/29
f 76/115/30 102/116/30 78/117/30
f 75/118/50 100/119/50 76/120/50
f 74/121/30 106/122/30 82/123/30
f 86/124/28 108/125/28 84/126/28
f 77/127/29 91/128/29 67/129/29
f 87/130/28 93/131/28 69/132/28
f 65/133/50 90/134/50 66/135/50
f 81/136/30 96/137/30 72/138/30
f 78/139/28 103/140/28 79/141/28
f 73/142/49 104/143/49 80/144/49
f 67/145/49 92/146/49 68/147/49
f 66/148/29 111/149/29 87/150/29
f 80/151/29 105/152/29 81/153/29
f 69/154/27 89/155/27 65/156/27
f 79/157/49 99/158/49 75/159/49
f 82/160/50 94/161/50 70/162/50
f 70/163/49 95/164/49 71/165/49
f 85/166/50 112/167/50 88/168/50
f 41/169/27 24/170/27 38/171/27
f 41/169/27 43/172/27 24/170/27
f 38/173/28 115/174/28 41/175/28
f 38/176/49 114/177/49 113/178/49
f 41/179/30 116/180/30 43/181/30
f 43/182/50 114/183/50 24/184/50
f 34/185/28 15/186/28 32/187/28
f 34/185/28 39/188/28 15/186/28
f 32/189/29 120/190/29 34/191/29
f 15/192/49 118/193/49 32/194/49
f 34/195/30 119/196/30 39/197/30
f 39/198/27 117/199/27 15/200/27
f 26/201/30 8/202/30 20/203/30
f 26/201/30 29/204/30 8/202/30
f 37/205/49 35/206/49 33/207/49
f 37/205/49 33/207/49 40/208/49
f 20/209/27 37/210/27 26/211/27
f 8/212/50 35/213/50 20/214/50
f 26/215/28 40/216/28 29/217/28
f 29/218/29 33/219/29 8/220/29
f 18/221/49 4/222/49 12/223/49
f 18/221/49 21/224/49 4/222/49
f 30/225/30 27/226/30 25/227/30
f 30/225/30 25/227/30 31/228/30
f 12/229/29 30/230/29 18/231/29
f 4/232/50 27/233/50 12/234/50
f 18/235/28 31/236/28 21/237/28
f 21/238/27 25/239/27 4/240/27
f 10/241/50 2/242/50 6/243/50
f 10/241/50 13/244/50 2/242/50
f 22/245/28 19/246/28 17/247/28
f 22/245/28 17/247/28 23/248/28
f 6/249/27 22/250/27 10/251/27
f 2/252/49 19/253/49 6/254/49
f 10/255/30 23/256/30 13/257/30
f 13/258/29 17/259/29 2/260/29
f 5/261/29 1/262/29 3/263/29
f 5/261/29 7/264/29 1/262/29
f 14/265/27 11/266/27 9/267/27
f 14/265/27 9/267/27 16/268/27
f 3/269/50 14/270/50 5/271/50
f 1/272/49 11/273/49 3/274/49
f 5/275/30 16/276/30 7/277/30
f 7/278/28 9/279/28 1/280/28
f 52/1/1 87/76/1 69/2/1
f 64/4/2 59/34/2 77/5/2
f 36/7/3 86/90/3 84/8/3
f 28/10/4 74/89/4 82/11/4
f 63/13/5 75/79/5 76/14/5
f 62/37/14 64/4/14 56/31/14
f 58/39/15 57/80/15 45/40/15
f 46/21/16 45/20/16 28/16/16
f 60/35/17 59/34/17 64/4/17
f 51/26/18 50/25/18 47/22/18
f 57/32/19 56/31/19 54/29/19
f 61/42/20 60/15/20 49/43/20
f 48/23/21 47/22/21 42/18/21
f 52/45/22 51/72/22 63/13/22
f 55/30/23 54/29/23 59/34/23
f 36/47/24 28/10/24 53/12/24
f 44/19/25 46/21/25 50/25/25
f 60/15/26 76/14/26 78/49/26
f 88/50/27 112/281/27 110/51/27
f 71/53/28 95/282/28 98/54/28
f 84/56/29 108/283/29 109/57/29
f 83/59/30 107/284/30 101/60/30
f 72/62/27 96/285/27 97/63/27
f 68/65/27 92/286/27 107/66/27
f 58/68/31 65/78/31 66/69/31
f 47/22/32 81/77/32 72/71/32
f 51/72/33 49/43/33 78/49/33
f 46/21/34 73/87/34 80/74/34
f 64/4/35 67/6/35 68/75/35
f 62/70/36 66/69/36 87/76/36
f 50/25/37 80/74/37 81/77/37
f 44/3/38 69/2/38 65/78/38
f 51/72/39 79/73/39 75/79/39
f 57/80/40 53/12/40 82/11/40
f 57/80/41 70/81/41 71/82/41
f 61/83/42 85/88/42 88/84/42
f 56/31/43 68/75/43 83/86/43
f 46/21/44 42/18/44 72/71/44
f 54/29/45 83/86/45 77/5/45
f 48/9/46 84/8/46 85/88/46
f 45/40/47 71/82/47 74/89/47
f 55/85/48 88/84/48 86/90/48
f 93/91/30 111/287/30 90/92/30
f 117/94/28 119/99/28 91/98/28
f 107/96/28 92/288/28 120/97/28
f 107/96/28 120/97/28 118/289/28
f 117/94/28 91/98/28 101/95/28
f 107/96/28 118/289/28 117/94/28
f 120/97/28 92/288/28 91/98/28
f 113/100/27 100/290/27 99/101/27
f 116/103/27 115/102/27 99/101/27
f 102/105/27 100/290/27 113/100/27
f 102/105/27 113/100/27 114/291/27
f 116/103/27 99/101/27 103/104/27
f 102/105/27 114/291/27 116/103/27
f 112/106/49 109/292/49 108/107/49
f 96/109/50 105/293/50 104/110/50
f 106/112/29 98/294/29 95/113/29
f 76/115/30 100/295/30 102/116/30
f 75/118/50 99/296/50 100/119/50
f 74/121/30 98/297/30 106/122/30
f 86/124/28 110/298/28 108/125/28
f 77/127/29 101/299/29 91/128/29
f 87/130/28 111/300/28 93/131/28
f 65/133/50 89/301/50 90/134/50
f 81/136/30 105/302/30 96/137/30
f 78/139/28 102/303/28 103/140/28
f 73/142/49 97/304/49 104/143/49
f 67/145/49 91/305/49 92/146/49
f 66/148/29 90/306/29 111/149/29
f 80/151/29 104/307/29 105/152/29
f 69/154/27 93/308/27 89/155/27
f 79/157/49 103/309/49 99/158/49
f 82/160/50 106/310/50 94/161/50
f 70/163/49 94/311/49 95/164/49
f 85/166/50 109/312/50 112/167/50
f 38/173/28 113/313/28 115/174/28
f 38/176/49 24/314/49 114/177/49
f 41/179/30 115/315/30 116/180/30
f 43/182/50 116/316/50 114/183/50
f 32/189/29 118/317/29 120/190/29
f 15/192/49 117/318/49 118/193/49
f 34/195/30 120/319/30 119/196/30
f 39/198/27 119/320/27 117/199/27
f 20/209/27 35/321/27 37/210/27
f 8/212/50 33/322/50 35/213/50
f 26/215/28 37/323/28 40/216/28
f 29/218/29 40/324/29 33/219/29
f 12/229/29 27/325/29 30/230/29
f 4/232/50 25/326/50 27/233/50
f 18/235/28 30/327/28 31/236/28
f 21/238/27 31/328/27 25/239/27
f 6/249/27 19/329/27 22/250/27
f 2/252/49 17/330/49 19/253/49
f 10/255/30 22/331/30 23/256/30
f 13/258/29 23/332/29 17/259/29
f 3/269/50 11/333/50 14/270/50
f 1/272/49 9/334/49 11/273/49
f 5/275/30 14/335/30 16/276/30
f 7/278/28 16/336/28 9/279/28
