# Blender 3.3.0
# www.blender.org
o Box
v 0.475000 0.500000 0.975000
v 0.475000 0.475000 1.000000
v 0.500000 0.475000 0.975000
v 0.475000 0.475000 -0.000000
v 0.475000 0.500000 0.025000
v 0.500000 0.475000 0.025000
v 0.500000 -0.475000 0.975000
v 0.475000 -0.475000 1.000000
v 0.475000 -0.500000 0.975000
v 0.500000 -0.475000 0.025000
v 0.475000 -0.500000 0.025000
v 0.475000 -0.475000 -0.000000
v -0.475000 0.500000 0.975000
v -0.500000 0.475000 0.975000
v -0.475000 0.475000 1.000000
v -0.500000 0.475000 0.025000
v -0.475000 0.500000 0.025000
v -0.475000 0.475000 -0.000000
v -0.500000 -0.475000 0.975000
v -0.475000 -0.500000 0.975000
v -0.475000 -0.475000 1.000000
v -0.475000 -0.475000 -0.000000
v -0.475000 -0.500000 0.025000
v -0.500000 -0.475000 0.025000
v -0.406125 0.406125 0.001250
v -0.406125 -0.406125 0.001250
v -0.498750 -0.406125 0.093875
v -0.498750 0.406125 0.093875
v 0.406125 0.406125 0.001250
v -0.406125 0.498750 0.093875
v 0.406125 0.498750 0.093875
v 0.498750 0.406125 0.906125
v 0.498750 0.406125 0.093875
v 0.406125 0.498750 0.906125
v -0.406125 -0.498750 0.093875
v -0.406125 -0.498750 0.906125
v -0.498750 -0.406125 0.906125
v 0.406125 -0.498750 0.906125
v 0.406125 -0.498750 0.093875
v 0.498750 -0.406125 0.093875
v 0.498750 -0.406125 0.906125
v -0.406125 0.498750 0.906125
v -0.498750 0.406125 0.906125
v 0.406125 -0.406125 0.998750
v -0.406125 -0.406125 0.998750
v 0.406125 0.406125 0.998750
v 0.406125 -0.406125 0.001250
v -0.406125 0.406125 0.998750
v -0.406125 0.406125 0.023750
v -0.406125 -0.406125 0.023750
v -0.476250 -0.406125 0.093875
v -0.476250 0.406125 0.093875
v 0.406125 0.406125 0.023750
v -0.406125 0.476250 0.093875
v 0.406125 0.476250 0.093875
v 0.476250 0.406125 0.906125
v 0.476250 0.406125 0.093875
v 0.406125 0.476250 0.906125
v -0.406125 -0.476250 0.093875
v -0.406125 -0.476250 0.906125
v -0.476250 -0.406125 0.906125
v 0.406125 -0.476250 0.906125
v 0.406125 -0.476250 0.093875
v 0.476250 -0.406125 0.093875
v 0.476250 -0.406125 0.906125
v -0.406125 0.476250 0.906125
v -0.476250 0.406125 0.906125
v 0.406125 -0.406125 0.976250
v -0.406125 -0.406125 0.976250
v 0.406125 0.406125 0.976250
v 0.406125 -0.406125 0.023750
v -0.406125 0.406125 0.976250
v 0.027119 -0.485000 0.836119
v -0.041881 -0.485000 0.836119
v -0.334881 -0.485000 0.150119
v -0.234881 -0.485000 0.150119
v -0.148881 -0.485000 0.351119
v 0.141119 -0.485000 0.351119
v 0.232119 -0.485000 0.150119
v 0.332119 -0.485000 0.150119
v -0.008881 -0.485000 0.686119
v 0.101119 -0.485000 0.439119
v -0.110881 -0.485000 0.439119
v -0.485000 0.038666 0.836119
v -0.485000 -0.030334 0.836119
v -0.485000 -0.323334 0.150119
v -0.485000 -0.223334 0.150119
v -0.485000 -0.137334 0.351119
v -0.485000 0.152666 0.351119
v -0.485000 0.243666 0.150119
v -0.485000 0.343667 0.150119
v -0.485000 0.002666 0.686119
v -0.485000 0.112666 0.439119
v -0.485000 -0.099334 0.439119
v 0.351119 0.038667 0.011547
v 0.351119 -0.030333 0.011547
v -0.334881 -0.323334 0.011548
v -0.334881 -0.223334 0.011548
v -0.133881 -0.137334 0.011548
v -0.133881 0.152666 0.011548
v -0.334881 0.243666 0.011548
v -0.334881 0.343667 0.011548
v 0.201119 0.002667 0.011547
v -0.045881 0.112666 0.011548
v -0.045881 -0.099334 0.011548
v 0.351119 0.038667 0.993096
v 0.351119 -0.030333 0.993096
v -0.334881 -0.323334 0.993096
v -0.334881 -0.223334 0.993096
v -0.133881 -0.137334 0.993096
v -0.133881 0.152666 0.993096
v -0.334881 0.243666 0.993096
v -0.334881 0.343667 0.993096
v 0.201119 0.002667 0.993096
v -0.045881 0.112666 0.993096
v -0.045881 -0.099334 0.993096
v 0.492699 0.038666 0.836119
v 0.492699 -0.030334 0.836119
v 0.492699 -0.323334 0.150119
v 0.492699 -0.223334 0.150119
v 0.492699 -0.137334 0.351119
v 0.492699 0.152666 0.351119
v 0.492699 0.243666 0.150119
v 0.492699 0.343667 0.150119
v 0.492699 0.002666 0.686119
v 0.492699 0.112666 0.439119
v 0.492699 -0.099334 0.439119
v 0.027119 0.488849 0.836119
v -0.041881 0.488849 0.836119
v -0.334881 0.488849 0.150119
v -0.234881 0.488849 0.150119
v -0.148881 0.488849 0.351119
v 0.141119 0.488849 0.351119
v 0.232119 0.488849 0.150119
v 0.332119 0.488849 0.150119
v -0.008881 0.488849 0.686119
v 0.101119 0.488849 0.439119
v -0.110881 0.488849 0.439119
vn -0.0181 -0.0000 -0.9998
vn -0.9998 0.0181 -0.0000
vn -0.0181 -0.0000 0.9998
vn -0.0000 0.9998 -0.0181
vn 0.0181 -0.9998 -0.0000
vn 0.5774 0.5774 0.5773
vn 0.5773 0.5774 -0.5774
vn 0.5774 -0.5774 0.5773
vn 0.5773 -0.5774 -0.5774
vn -0.5774 0.5774 0.5773
vn -0.5773 0.5774 -0.5774
vn -0.5774 -0.5774 0.5773
vn -0.5773 -0.5774 -0.5774
vn -0.7071 -0.0000 -0.7071
vn -0.0000 0.7071 -0.7071
vn 0.7071 0.7071 -0.0000
vn -0.7071 -0.7071 -0.0000
vn 0.7071 -0.7071 -0.0000
vn -0.7071 0.7071 -0.0000
vn -0.0000 -0.7071 0.7071
vn 0.7071 -0.0000 0.7071
vn -0.0000 -0.7071 -0.7071
vn -0.7071 -0.0000 0.7071
vn -0.0000 0.7071 0.7071
vn 0.7071 -0.0000 -0.7071
vn -0.0000 -0.9998 -0.0181
vn -0.0000 -1.0000 -0.0000
vn -1.0000 -0.0000 -0.0000
vn -0.0000 1.0000 -0.0000
vn -0.0000 -0.0000 -1.0000
vn 0.0181 -0.0000 -0.9998
vn 0.9998 -0.0000 -0.0181
vn -0.0181 -0.9998 -0.0000
vn 0.9998 -0.0000 0.0181
vn -0.9998 -0.0000 0.0181
vn -0.0000 0.0181 -0.9998
vn 0.9998 0.0181 -0.0000
vn -0.0000 -0.0181 -0.9998
vn -0.0000 -0.9998 0.0181
vn 0.0181 0.9998 -0.0000
vn -0.0000 0.9998 0.0181
vn 0.0181 -0.0000 0.9998
vn -0.9998 -0.0181 -0.0000
vn 0.9998 -0.0181 -0.0000
vn -0.9998 -0.0000 -0.0181
vn -0.0000 0.0181 0.9998
vn -0.0181 0.9998 -0.0000
vn -0.0000 -0.0181 0.9998
vn -0.0000 -0.0000 1.0000
vn 1.0000 -0.0000 -0.0000
vt 0.233017 0.472008
vt 0.466033 0.227042
vt 0.227042 0.477983
vt 0.466033 0.233017
vt 0.466033 0.238991
vt 0.227042 0.472008
vt 0.227042 0.238991
vt 0.233017 0.005975
vt 0.233017 0.000000
vt 0.233017 0.244966
vt 0.466033 0.000000
vt 0.227042 0.244966
vt 0.466033 0.233017
vt 0.000000 0.472008
vt 0.460059 0.238991
vt 0.000000 0.477983
vt 0.466033 0.466033
vt 0.460059 0.233017
vt 0.466033 0.005975
vt 0.000000 0.244966
vt 0.460059 0.005975
vt 0.460059 0.000000
vt 0.000000 0.238991
vt 0.233017 0.233017
vt 0.460058 0.477983
vt 0.693075 0.227042
vt 0.460058 0.472008
vt 0.466033 0.472008
vt 0.693075 0.233017
vt 0.693075 0.238991
vt 0.000000 0.005975
vt 0.233017 0.472008
vt 0.005975 0.000000
vt 0.233017 0.477983
vt 0.693075 0.000000
vt 0.005975 0.005975
vt 0.460058 0.244966
vt 0.460058 0.238991
vt 0.233017 0.233017
vt 0.233017 0.238991
vt 0.466033 0.244966
vt 0.693075 0.466033
vt 0.233017 0.000000
vt 0.005975 0.233017
vt 0.005975 0.238991
vt 0.233017 0.238991
vt 0.233017 0.005975
vt 0.000000 0.233017
vt 0.233017 0.244966
vt 0.022435 0.022435
vt 0.863237 0.194121
vt 0.859652 0.466033
vt 0.022435 0.216556
vt 0.863237 0.000000
vt 0.859652 0.854275
vt 0.249477 0.261427
vt 0.415128 0.477983
vt 0.436638 0.672104
vt 0.388242 0.477983
vt 0.249477 0.455548
vt 0.436638 0.477983
vt 0.216556 0.022435
vt 0.863237 0.194121
vt 0.859652 0.660154
vt 0.676615 0.016461
vt 0.398996 0.477983
vt 0.865030 0.660154
vt 0.398996 0.477983
vt 0.482494 0.016461
vt 0.865030 0.466033
vt 0.420506 0.672104
vt 0.210581 0.455548
vt 0.466033 0.477983
vt 0.420506 0.477983
vt 0.210581 0.261427
vt 0.442015 0.477983
vt 0.398996 0.672104
vt 0.482494 0.210581
vt 0.865030 0.854275
vt 0.249477 0.022435
vt 0.404374 0.477983
vt 0.324192 0.866225
vt 0.249477 0.216556
vt 0.318815 0.672104
vt 0.404374 0.672104
vt 0.436638 0.672104
vt 0.443598 0.261427
vt 0.415128 0.672104
vt 0.443598 0.216556
vt 0.318815 0.866225
vt 0.425883 0.672104
vt 0.443598 0.022435
vt 0.425883 0.477983
vt 0.324192 0.672104
vt 0.016461 0.261427
vt 0.442015 0.672104
vt 0.425883 0.477983
vt 0.016461 0.455548
vt 0.466033 0.672104
vt 0.425883 0.672104
vt 0.676615 0.210581
vt 0.865030 0.660154
vt 0.398996 0.672104
vt 0.436638 0.477983
vt 0.388242 0.672104
vt 0.443598 0.455548
vt 0.852483 0.194121
vt 0.482494 0.449573
vt 0.449901 0.672104
vt 0.852483 0.388241
vt 0.676615 0.449573
vt 0.852483 0.000000
vt 0.455279 0.672104
vt 0.482494 0.255452
vt 0.449901 0.477983
vt 0.216556 0.216556
vt 0.863237 0.388241
vt 0.859652 0.660154
vt 0.455279 0.477983
vt 0.676615 0.255452
vt 0.852483 0.194121
vt 0.660154 0.466033
vt 0.857860 0.194121
vt 0.854275 0.466033
vt 0.660154 0.660154
vt 0.857860 0.000000
vt 0.854275 0.854275
vt 0.194121 0.477983
vt 0.409751 0.477983
vt 0.431260 0.672104
vt 0.393619 0.477983
vt 0.000000 0.477983
vt 0.431260 0.477983
vt 0.854275 0.466033
vt 0.857860 0.194121
vt 0.854275 0.660154
vt 0.660154 0.466033
vt 0.393619 0.477983
vt 0.859652 0.660154
vt 0.404374 0.477983
vt 0.466033 0.466033
vt 0.859652 0.466033
vt 0.415128 0.672104
vt 0.660154 0.854275
vt 0.460656 0.477983
vt 0.415128 0.477983
vt 0.660154 0.660154
vt 0.447392 0.477983
vt 0.404374 0.672104
vt 0.466033 0.660154
vt 0.859652 0.854275
vt 0.194121 0.477983
vt 0.409751 0.477983
vt 0.329569 0.866225
vt 0.194121 0.672104
vt 0.324192 0.672104
vt 0.409751 0.672104
vt 0.442015 0.672104
vt 0.194121 0.672104
vt 0.409751 0.672104
vt 0.388242 0.672104
vt 0.324192 0.866225
vt 0.420506 0.672104
vt 0.388242 0.477983
vt 0.420506 0.477983
vt 0.329569 0.672104
vt 0.466033 0.660154
vt 0.447392 0.672104
vt 0.431260 0.477983
vt 0.466033 0.854275
vt 0.460656 0.672104
vt 0.431260 0.672104
vt 0.660154 0.660154
vt 0.859652 0.660154
vt 0.393619 0.672104
vt 0.442015 0.477983
vt 0.393619 0.672104
vt 0.000000 0.672104
vt 0.857860 0.194121
vt 0.660154 0.854275
vt 0.455279 0.672104
vt 0.857860 0.388241
vt 0.854275 0.854275
vt 0.857860 0.000000
vt 0.460656 0.672104
vt 0.660154 0.660154
vt 0.455279 0.477983
vt 0.857860 0.388241
vt 0.854275 0.660154
vt 0.460656 0.477983
vt 0.854275 0.660154
vt 0.857860 0.194121
vt 0.245922 1.000000
vt 0.229432 1.000000
vt 0.159407 0.836052
vt 0.183306 0.836052
vt 0.203860 0.884089
vt 0.273167 0.884089
vt 0.294915 0.836052
vt 0.318815 0.836052
vt 0.237318 0.964151
vt 0.263608 0.905120
vt 0.212941 0.905120
vt 0.086515 0.836052
vt 0.070024 0.836052
vt 0.000000 0.672104
vt 0.023899 0.672104
vt 0.044452 0.720141
vt 0.113760 0.720141
vt 0.135508 0.672104
vt 0.159407 0.672104
vt 0.077911 0.800203
vt 0.104200 0.741172
vt 0.053534 0.741172
vt 0.072892 0.836052
vt 0.089383 0.836052
vt 0.159407 1.000000
vt 0.135508 1.000000
vt 0.114955 0.951963
vt 0.045647 0.951963
vt 0.023899 1.000000
vt 0.000000 1.000000
vt 0.081496 0.871901
vt 0.055207 0.930931
vt 0.105873 0.930931
vt 0.765968 0.163948
vt 0.782458 0.163948
vt 0.852482 0.327896
vt 0.828583 0.327896
vt 0.808030 0.279859
vt 0.738723 0.279859
vt 0.716974 0.327896
vt 0.693075 0.327896
vt 0.774571 0.199797
vt 0.748282 0.258828
vt 0.798948 0.258828
vt 0.779590 0.163948
vt 0.763100 0.163948
vt 0.693075 0.000000
vt 0.716974 0.000000
vt 0.737528 0.048037
vt 0.806835 0.048037
vt 0.828583 0.000000
vt 0.852483 0.000000
vt 0.770986 0.128099
vt 0.797275 0.069069
vt 0.746609 0.069069
vt 0.245922 0.836052
vt 0.229432 0.836052
vt 0.159407 0.672104
vt 0.183306 0.672104
vt 0.203860 0.720141
vt 0.273167 0.720141
vt 0.294915 0.672104
vt 0.318815 0.672104
vt 0.237318 0.800203
vt 0.263608 0.741172
vt 0.212941 0.741172
s 0
f 4/8/1 12/24/1 47/116/1 29/62/1
f 24/49/2 19/37/2 37/87/2 27/56/2
f 8/17/3 2/5/3 46/114/3 44/108/3
f 13/26/4 1/2/4 34/78/4 42/101/4
f 20/39/5 23/47/5 35/80/5 36/83/5
f 1/1/6 2/3/6 3/6/6
f 4/7/7 5/10/7 6/12/7
f 7/13/8 8/15/8 9/18/8
f 10/19/9 11/21/9 12/22/9
f 13/25/10 14/27/10 15/28/10
f 16/31/11 17/33/11 18/36/11
f 19/37/12 20/38/12 21/41/12
f 22/44/13 23/45/13 24/48/13
f 18/36/14 22/44/14 24/48/14 16/31/14
f 4/8/15 18/36/15 17/33/15 5/9/15
f 3/6/16 6/12/16 5/10/16 1/1/16
f 23/46/17 20/38/17 19/37/17 24/49/17
f 9/18/18 11/21/18 10/19/18 7/13/18
f 13/25/19 17/34/19 16/32/19 14/27/19
f 8/15/20 21/40/20 20/39/20 9/18/20
f 2/3/21 8/16/21 7/14/21 3/6/21
f 22/43/22 12/22/22 11/21/22 23/47/22
f 21/41/23 15/28/23 14/27/23 19/37/23
f 15/29/24 2/4/24 1/2/24 13/26/24
f 12/23/25 4/7/25 6/12/25 10/20/25
f 9/18/26 20/39/26 36/83/26 38/89/26
f 46/113/27 48/119/27 72/190/27 70/185/27
f 34/77/28 31/68/28 55/140/28 58/149/28
f 45/110/29 44/107/29 68/179/29 69/182/29
f 37/86/30 43/104/30 67/176/30 61/158/30
f 33/74/27 32/71/27 56/143/27 57/146/27
f 43/105/27 28/59/27 52/131/27 67/177/27
f 22/44/31 18/36/31 25/50/31 26/53/31
f 3/6/32 7/14/32 41/98/32 32/72/32
f 11/21/33 9/18/33 38/89/33 39/92/33
f 10/20/34 6/12/34 33/75/34 40/95/34
f 16/32/35 24/49/35 27/56/35 28/60/35
f 12/24/36 22/44/36 26/53/36 47/116/36
f 7/14/37 10/20/37 40/95/37 41/98/37
f 18/36/38 4/8/38 29/62/38 25/50/38
f 23/47/39 11/21/39 39/92/39 35/80/39
f 17/35/40 13/26/40 42/101/40 30/65/40
f 5/11/41 17/35/41 30/65/41 31/69/41
f 15/30/42 21/42/42 45/111/42 48/120/42
f 14/27/43 16/32/43 28/60/43 43/106/43
f 6/12/44 3/6/44 32/72/44 33/75/44
f 19/37/45 14/27/45 43/106/45 37/87/45
f 21/42/46 8/17/46 44/108/46 45/111/46
f 1/2/47 5/11/47 31/69/47 34/78/47
f 2/5/48 15/30/48 48/120/48 46/114/48
f 49/122/30 53/134/30 71/189/30 50/125/30
f 51/128/28 61/159/28 67/178/28 52/132/28
f 63/164/27 62/161/27 60/155/27 59/152/27
f 70/186/49 72/191/49 69/183/49 68/180/49
f 57/147/50 56/144/50 65/170/50 64/167/50
f 54/137/29 66/173/29 58/150/29 55/141/29
f 38/90/30 36/84/30 60/156/30 62/162/30
f 36/85/50 35/81/50 59/153/50 60/157/50
f 42/102/30 34/79/30 58/151/30 66/174/30
f 44/109/28 46/115/28 70/187/28 68/181/28
f 27/57/29 37/88/29 61/160/29 51/129/29
f 29/63/28 47/117/28 71/188/28 53/135/28
f 26/54/50 25/51/50 49/123/50 50/126/50
f 32/73/30 41/99/30 65/171/30 56/145/30
f 39/93/28 38/91/28 62/163/28 63/165/28
f 40/96/49 33/76/49 57/148/49 64/168/49
f 28/61/49 27/58/49 51/130/49 52/133/49
f 47/118/29 26/55/29 50/127/29 71/189/29
f 41/100/29 40/97/29 64/169/29 65/172/29
f 25/52/27 29/64/27 53/136/27 49/124/27
f 35/82/49 39/94/49 63/166/49 59/154/49
f 30/66/50 42/103/50 66/175/50 54/138/50
f 31/70/49 30/67/49 54/139/49 55/142/49
f 48/121/50 45/112/50 69/184/50 72/192/50
f 75/195/27 73/193/27 74/194/27
f 75/195/27 81/201/27 73/193/27
f 81/201/27 80/200/27 73/193/27
f 75/195/27 83/203/27 81/201/27
f 82/202/27 80/200/27 81/201/27
f 75/195/27 77/197/27 83/203/27
f 77/197/27 82/202/27 83/203/27
f 77/197/27 78/198/27 82/202/27
f 78/198/27 80/200/27 82/202/27
f 75/195/27 76/196/27 77/197/27
f 79/199/27 80/200/27 78/198/27
f 86/206/50 84/204/50 85/205/50
f 86/206/50 92/212/50 84/204/50
f 92/212/50 91/211/50 84/204/50
f 86/206/50 94/214/50 92/212/50
f 93/213/50 91/211/50 92/212/50
f 86/206/50 88/208/50 94/214/50
f 88/208/50 93/213/50 94/214/50
f 88/208/50 89/209/50 93/213/50
f 89/209/50 91/211/50 93/213/50
f 86/206/50 87/207/50 88/208/50
f 90/210/50 91/211/50 89/209/50
f 97/217/30 95/215/30 96/216/30
f 97/217/30 103/223/30 95/215/30
f 103/223/30 102/222/30 95/215/30
f 97/217/30 105/225/30 103/223/30
f 104/224/30 102/222/30 103/223/30
f 97/217/30 99/219/30 105/225/30
f 99/219/30 104/224/30 105/225/30
f 99/219/30 100/220/30 104/224/30
f 100/220/30 102/222/30 104/224/30
f 97/217/30 98/218/30 99/219/30
f 101/221/30 102/222/30 100/220/30
f 108/228/30 106/226/30 107/227/30
f 108/228/30 114/234/30 106/226/30
f 114/234/30 113/233/30 106/226/30
f 108/228/30 116/236/30 114/234/30
f 115/235/30 113/233/30 114/234/30
f 108/228/30 110/230/30 116/236/30
f 110/230/30 115/235/30 116/236/30
f 110/230/30 111/231/30 115/235/30
f 111/231/30 113/233/30 115/235/30
f 108/228/30 109/229/30 110/230/30
f 112/232/30 113/233/30 111/231/30
f 119/239/50 117/237/50 118/238/50
f 119/239/50 125/245/50 117/237/50
f 125/245/50 124/244/50 117/237/50
f 119/239/50 127/247/50 125/245/50
f 126/246/50 124/244/50 125/245/50
f 119/239/50 121/241/50 127/247/50
f 121/241/50 126/246/50 127/247/50
f 121/241/50 122/242/50 126/246/50
f 122/242/50 124/244/50 126/246/50
f 119/239/50 120/240/50 121/241/50
f 123/243/50 124/244/50 122/242/50
f 130/250/27 128/248/27 129/249/27
f 130/250/27 136/256/27 128/248/27
f 136/256/27 135/255/27 128/248/27
f 130/250/27 138/258/27 136/256/27
f 137/257/27 135/255/27 136/256/27
f 130/250/27 132/252/27 138/258/27
f 132/252/27 137/257/27 138/258/27
f 132/252/27 133/253/27 137/257/27
f 133/253/27 135/255/27 137/257/27
f 130/250/27 131/251/27 132/252/27
f 134/254/27 135/255/27 133/253/27
