# Blender 3.3.0
# www.blender.org
mtllib cylinder.mtl
o Cylinder
v 0.000000 0.449758 1.000000
v 0.000000 0.500000 0.950000
v 0.087743 0.441116 1.000000
v 0.097545 0.490393 0.950000
v 0.172115 0.415522 1.000000
v 0.191342 0.461940 0.950000
v 0.249872 0.373960 1.000000
v 0.277785 0.415735 0.950000
v 0.318027 0.318027 1.000000
v 0.353553 0.353553 0.950000
v 0.373960 0.249872 1.000000
v 0.415735 0.277785 0.950000
v 0.415522 0.172115 1.000000
v 0.461940 0.191342 0.950000
v 0.441116 0.087743 1.000000
v 0.490393 0.097545 0.950000
v 0.449758 0.000000 1.000000
v 0.500000 0.000000 0.950000
v 0.441116 -0.087743 1.000000
v 0.490393 -0.097545 0.950000
v 0.415522 -0.172115 1.000000
v 0.461940 -0.191342 0.950000
v 0.373960 -0.249872 1.000000
v 0.415735 -0.277785 0.950000
v 0.318027 -0.318027 1.000000
v 0.353553 -0.353553 0.950000
v 0.249872 -0.373960 1.000000
v 0.277785 -0.415735 0.950000
v 0.172115 -0.415522 1.000000
v 0.191342 -0.461940 0.950000
v 0.087743 -0.441116 1.000000
v 0.097545 -0.490393 0.950000
v 0.000000 -0.449758 1.000000
v 0.000000 -0.500000 0.950000
v -0.087743 -0.441116 1.000000
v -0.097545 -0.490393 0.950000
v -0.172115 -0.415522 1.000000
v -0.191342 -0.461940 0.950000
v -0.249872 -0.373960 1.000000
v -0.277785 -0.415735 0.950000
v -0.318027 -0.318027 1.000000
v -0.353553 -0.353553 0.950000
v -0.373960 -0.249872 1.000000
v -0.415735 -0.277785 0.950000
v -0.415522 -0.172115 1.000000
v -0.461940 -0.191342 0.950000
v -0.441116 -0.087743 1.000000
v -0.490393 -0.097545 0.950000
v -0.449758 0.000000 1.000000
v -0.500000 0.000000 0.950000
v -0.441116 0.087743 1.000000
v -0.490393 0.097545 0.950000
v -0.415522 0.172115 1.000000
v -0.461940 0.191342 0.950000
v -0.373960 0.249872 1.000000
v -0.415735 0.277785 0.950000
v -0.318027 0.318027 1.000000
v -0.353553 0.353553 0.950000
v -0.249872 0.373960 1.000000
v -0.277785 0.415735 0.950000
v -0.172115 0.415522 1.000000
v -0.191342 0.461940 0.950000
v -0.087743 0.441116 1.000000
v -0.097545 0.490393 0.950000
v 0.000000 0.449758 0.000000
v 0.000000 0.500000 0.050000
v 0.097545 0.490393 0.050000
v 0.087743 0.441116 0.000000
v 0.191342 0.461940 0.050000
v 0.172115 0.415522 0.000000
v 0.277785 0.415735 0.050000
v 0.249872 0.373960 0.000000
v 0.353553 0.353553 0.050000
v 0.318027 0.318027 0.000000
v 0.415735 0.277785 0.050000
v 0.373960 0.249872 0.000000
v 0.461940 0.191342 0.050000
v 0.415522 0.172115 0.000000
v 0.490393 0.097545 0.050000
v 0.441116 0.087743 0.000000
v 0.500000 0.000000 0.050000
v 0.449758 0.000000 0.000000
v 0.490393 -0.097545 0.050000
v 0.441116 -0.087743 0.000000
v 0.461940 -0.191342 0.050000
v 0.415522 -0.172115 0.000000
v 0.415735 -0.277785 0.050000
v 0.373960 -0.249872 0.000000
v 0.353553 -0.353553 0.050000
v 0.318027 -0.318027 0.000000
v 0.277785 -0.415735 0.050000
v 0.249872 -0.373960 0.000000
v 0.191342 -0.461940 0.050000
v 0.172115 -0.415522 0.000000
v 0.097545 -0.490393 0.050000
v 0.087743 -0.441116 0.000000
v 0.000000 -0.500000 0.050000
v 0.000000 -0.449758 0.000000
v -0.097545 -0.490393 0.050000
v -0.087743 -0.441116 0.000000
v -0.191342 -0.461940 0.050000
v -0.172115 -0.415522 0.000000
v -0.277785 -0.415735 0.050000
v -0.249872 -0.373960 0.000000
v -0.353553 -0.353553 0.050000
v -0.318027 -0.318027 0.000000
v -0.415735 -0.277785 0.050000
v -0.373960 -0.249872 0.000000
v -0.461940 -0.191342 0.050000
v -0.415522 -0.172115 0.000000
v -0.490393 -0.097545 0.050000
v -0.441116 -0.087743 0.000000
v -0.500000 0.000000 0.050000
v -0.449758 0.000000 0.000000
v -0.490393 0.097545 0.050000
v -0.441116 0.087743 0.000000
v -0.461940 0.191342 0.050000
v -0.415522 0.172115 0.000000
v -0.415735 0.277785 0.050000
v -0.373960 0.249872 0.000000
v -0.353553 0.353553 0.050000
v -0.318027 0.318027 0.000000
v -0.277785 0.415735 0.050000
v -0.249872 0.373960 0.000000
v -0.191342 0.461940 0.050000
v -0.172115 0.415522 0.000000
v -0.097545 0.490393 0.050000
v -0.087743 0.441116 0.000000
vn -0.0000 0.9268 -0.3756
vn -0.0000 0.9268 0.3756
vn 0.1808 0.9090 0.3756
vn 0.1808 0.9090 -0.3756
vn 0.5149 0.7706 -0.3756
vn 0.5149 0.7706 0.3756
vn 0.6553 0.6553 0.3756
vn 0.6553 0.6553 -0.3756
vn 0.7706 0.5149 0.3756
vn 0.7706 0.5149 -0.3756
vn 0.8562 0.3547 0.3756
vn 0.8562 0.3547 -0.3756
vn 0.9090 0.1808 0.3756
vn 0.9090 0.1808 -0.3756
vn 0.9268 -0.0000 0.3756
vn 0.9268 -0.0000 -0.3756
vn 0.9090 -0.1808 0.3756
vn 0.9090 -0.1808 -0.3756
vn 0.8562 -0.3547 0.3756
vn 0.8562 -0.3547 -0.3756
vn 0.7706 -0.5149 0.3756
vn 0.7706 -0.5149 -0.3756
vn 0.6553 -0.6553 0.3756
vn 0.6553 -0.6553 -0.3756
vn 0.5149 -0.7706 0.3756
vn 0.5149 -0.7706 -0.3756
vn 0.3547 -0.8562 0.3756
vn 0.3547 -0.8562 -0.3756
vn 0.1808 -0.9090 0.3756
vn 0.1808 -0.9090 -0.3756
vn -0.0000 -0.9268 0.3756
vn -0.0000 -0.9268 -0.3756
vn -0.1808 -0.9090 0.3756
vn -0.1808 -0.9090 -0.3756
vn -0.3547 -0.8562 0.3756
vn -0.3547 -0.8562 -0.3756
vn -0.5149 -0.7706 0.3756
vn -0.5149 -0.7706 -0.3756
vn -0.6553 -0.6553 0.3756
vn -0.6553 -0.6553 -0.3756
vn -0.7706 -0.5149 0.3756
vn -0.7706 -0.5149 -0.3756
vn -0.8562 -0.3547 0.3756
vn -0.8562 -0.3547 -0.3756
vn -0.9090 -0.1808 0.3756
vn -0.9090 -0.1808 -0.3756
vn -0.9268 -0.0000 0.3756
vn -0.9268 -0.0000 -0.3756
vn -0.9090 0.1808 0.3756
vn -0.9090 0.1808 -0.3756
vn -0.8562 0.3547 0.3756
vn -0.8562 0.3547 -0.3756
vn -0.7706 0.5149 0.3756
vn -0.7706 0.5149 -0.3756
vn -0.6553 0.6553 0.3756
vn -0.6553 0.6553 -0.3756
vn -0.5149 0.7706 0.3756
vn -0.5149 0.7706 -0.3756
vn -0.3547 0.8562 0.3756
vn -0.3547 0.8562 -0.3756
vn -0.1808 0.9090 0.3756
vn -0.1808 0.9090 -0.3756
vn 0.3547 0.8562 0.3756
vn 0.3547 0.8562 -0.3756
vn -0.0000 0.4016 0.9158
vn 0.0783 0.3939 0.9158
vn 0.1537 0.3710 0.9158
vn 0.2231 0.3339 0.9158
vn 0.2840 0.2840 0.9158
vn 0.3339 0.2231 0.9158
vn 0.3710 0.1537 0.9158
vn 0.3939 0.0783 0.9158
vn 0.4016 -0.0000 0.9158
vn 0.3939 -0.0783 0.9158
vn 0.3710 -0.1537 0.9158
vn 0.3339 -0.2231 0.9158
vn 0.2840 -0.2840 0.9158
vn 0.2231 -0.3339 0.9158
vn 0.1537 -0.3710 0.9158
vn 0.0783 -0.3939 0.9158
vn -0.0000 -0.4016 0.9158
vn -0.0783 -0.3939 0.9158
vn -0.1537 -0.3710 0.9158
vn -0.2231 -0.3339 0.9158
vn -0.2840 -0.2840 0.9158
vn -0.3339 -0.2231 0.9158
vn -0.3710 -0.1537 0.9158
vn -0.3939 -0.0783 0.9158
vn -0.4016 -0.0000 0.9158
vn -0.3939 0.0783 0.9158
vn -0.3710 0.1537 0.9158
vn -0.3339 0.2231 0.9158
vn -0.2840 0.2840 0.9158
vn -0.2231 0.3339 0.9158
vn -0.1537 0.3710 0.9158
vn -0.0783 0.3939 0.9158
vn 0.0783 0.3939 -0.9158
vn -0.0000 0.4016 -0.9158
vn 0.1537 0.3710 -0.9158
vn 0.2231 0.3339 -0.9158
vn 0.2840 0.2840 -0.9158
vn 0.3339 0.2231 -0.9158
vn 0.3710 0.1537 -0.9158
vn 0.3939 0.0783 -0.9158
vn 0.4016 -0.0000 -0.9158
vn 0.3939 -0.0783 -0.9158
vn 0.3710 -0.1537 -0.9158
vn 0.3339 -0.2231 -0.9158
vn 0.2840 -0.2840 -0.9158
vn 0.2231 -0.3339 -0.9158
vn 0.1537 -0.3710 -0.9158
vn 0.0783 -0.3939 -0.9158
vn -0.0000 -0.4016 -0.9158
vn -0.0783 -0.3939 -0.9158
vn -0.1537 -0.3710 -0.9158
vn -0.2231 -0.3339 -0.9158
vn -0.2840 -0.2840 -0.9158
vn -0.3339 -0.2231 -0.9158
vn -0.3710 -0.1537 -0.9158
vn -0.3939 -0.0783 -0.9158
vn -0.4016 -0.0000 -0.9158
vn -0.3939 0.0783 -0.9158
vn -0.3710 0.1537 -0.9158
vn -0.3339 0.2231 -0.9158
vn -0.2840 0.2840 -0.9158
vn -0.2231 0.3339 -0.9158
vn -0.1537 0.3710 -0.9158
vn -0.0783 0.3939 -0.9158
vt 0.250000 0.465884
vt 1.000000 0.975000
vt 0.000000 0.975000
vt 0.250000 0.490000
vt 0.292117 0.461736
vt 0.968750 0.975000
vt 0.296822 0.485388
vt 0.332615 0.449451
vt 0.937500 0.975000
vt 0.341844 0.471731
vt 0.369939 0.429501
vt 0.906250 0.975000
vt 0.383337 0.449553
vt 0.402653 0.402653
vt 0.875000 0.975000
vt 0.419706 0.419706
vt 0.429501 0.369939
vt 0.843750 0.975000
vt 0.449553 0.383337
vt 0.449451 0.332615
vt 0.812500 0.975000
vt 0.471731 0.341844
vt 0.461736 0.292117
vt 0.781250 0.975000
vt 0.485388 0.296822
vt 0.465884 0.250000
vt 0.750000 0.975000
vt 0.490000 0.250000
vt 0.461736 0.207883
vt 0.718750 0.975000
vt 0.485388 0.203178
vt 0.449451 0.167385
vt 0.687500 0.975000
vt 0.471731 0.158156
vt 0.429501 0.130061
vt 0.656250 0.975000
vt 0.449553 0.116663
vt 0.402653 0.097347
vt 0.625000 0.975000
vt 0.419706 0.080294
vt 0.369939 0.070499
vt 0.593750 0.975000
vt 0.383337 0.050447
vt 0.332615 0.050549
vt 0.562500 0.975000
vt 0.341844 0.028269
vt 0.292117 0.038264
vt 0.531250 0.975000
vt 0.296822 0.014612
vt 0.250000 0.034116
vt 0.500000 0.975000
vt 0.250000 0.010000
vt 0.207883 0.038264
vt 0.468750 0.975000
vt 0.203178 0.014612
vt 0.167385 0.050549
vt 0.437500 0.975000
vt 0.158156 0.028269
vt 0.130061 0.070499
vt 0.406250 0.975000
vt 0.116663 0.050447
vt 0.097347 0.097347
vt 0.375000 0.975000
vt 0.080294 0.080294
vt 0.070499 0.130061
vt 0.343750 0.975000
vt 0.050447 0.116663
vt 0.050549 0.167385
vt 0.312500 0.975000
vt 0.028269 0.158156
vt 0.038264 0.207883
vt 0.281250 0.975000
vt 0.014612 0.203178
vt 0.034116 0.250000
vt 0.250000 0.975000
vt 0.010000 0.250000
vt 0.038264 0.292117
vt 0.218750 0.975000
vt 0.014612 0.296822
vt 0.050549 0.332615
vt 0.187500 0.975000
vt 0.028269 0.341844
vt 0.070499 0.369939
vt 0.156250 0.975000
vt 0.050447 0.383337
vt 0.097347 0.402653
vt 0.125000 0.975000
vt 0.080294 0.419706
vt 0.130061 0.429501
vt 0.093750 0.975000
vt 0.116663 0.449553
vt 0.167385 0.449451
vt 0.062500 0.975000
vt 0.158156 0.471731
vt 0.207883 0.461736
vt 0.031250 0.975000
vt 0.203178 0.485388
vt 0.998430 0.500000
vt 0.001570 0.500000
vt 0.750000 0.465884
vt 1.000000 0.525000
vt 0.000000 0.525000
vt 0.968750 0.525000
vt 0.970320 0.500000
vt 0.967180 0.500000
vt 0.792117 0.461736
vt 0.937500 0.525000
vt 0.939070 0.500000
vt 0.935930 0.500000
vt 0.832616 0.449451
vt 0.906250 0.525000
vt 0.907820 0.500000
vt 0.904680 0.500000
vt 0.869939 0.429501
vt 0.875000 0.525000
vt 0.876570 0.500000
vt 0.873430 0.500000
vt 0.902653 0.402653
vt 0.843750 0.525000
vt 0.845320 0.500000
vt 0.842180 0.500000
vt 0.929501 0.369939
vt 0.812500 0.525000
vt 0.814070 0.500000
vt 0.810930 0.500000
vt 0.949451 0.332615
vt 0.781250 0.525000
vt 0.782820 0.500000
vt 0.779680 0.500000
vt 0.961736 0.292117
vt 0.750000 0.525000
vt 0.751570 0.500000
vt 0.748430 0.500000
vt 0.965884 0.250000
vt 0.718750 0.525000
vt 0.720320 0.500000
vt 0.717180 0.500000
vt 0.961736 0.207883
vt 0.687500 0.525000
vt 0.689070 0.500000
vt 0.685930 0.500000
vt 0.949451 0.167385
vt 0.656250 0.525000
vt 0.657820 0.500000
vt 0.654680 0.500000
vt 0.929501 0.130061
vt 0.625000 0.525000
vt 0.626570 0.500000
vt 0.623430 0.500000
vt 0.902653 0.097347
vt 0.593750 0.525000
vt 0.595320 0.500000
vt 0.592180 0.500000
vt 0.869939 0.070499
vt 0.562500 0.525000
vt 0.564070 0.500000
vt 0.560930 0.500000
vt 0.832615 0.050549
vt 0.531250 0.525000
vt 0.532820 0.500000
vt 0.529680 0.500000
vt 0.792117 0.038264
vt 0.500000 0.525000
vt 0.501570 0.500000
vt 0.498430 0.500000
vt 0.750000 0.034116
vt 0.468750 0.525000
vt 0.470320 0.500000
vt 0.467180 0.500000
vt 0.707883 0.038264
vt 0.437500 0.525000
vt 0.439070 0.500000
vt 0.435930 0.500000
vt 0.667385 0.050549
vt 0.406250 0.525000
vt 0.407820 0.500000
vt 0.404680 0.500000
vt 0.630061 0.070499
vt 0.375000 0.525000
vt 0.376570 0.500000
vt 0.373430 0.500000
vt 0.597347 0.097347
vt 0.343750 0.525000
vt 0.345320 0.500000
vt 0.342180 0.500000
vt 0.570499 0.130061
vt 0.312500 0.525000
vt 0.314070 0.500000
vt 0.310930 0.500000
vt 0.550549 0.167385
vt 0.281250 0.525000
vt 0.282820 0.500000
vt 0.279680 0.500000
vt 0.538264 0.207883
vt 0.250000 0.525000
vt 0.251570 0.500000
vt 0.248430 0.500000
vt 0.534116 0.250000
vt 0.218750 0.525000
vt 0.220320 0.500000
vt 0.217180 0.500000
vt 0.538264 0.292117
vt 0.187500 0.525000
vt 0.189070 0.500000
vt 0.185930 0.500000
vt 0.550549 0.332615
vt 0.156250 0.525000
vt 0.157820 0.500000
vt 0.154680 0.500000
vt 0.570499 0.369939
vt 0.125000 0.525000
vt 0.126570 0.500000
vt 0.123430 0.500000
vt 0.597347 0.402653
vt 0.093750 0.525000
vt 0.095320 0.500000
vt 0.092180 0.500000
vt 0.630061 0.429501
vt 0.062500 0.525000
vt 0.064070 0.500000
vt 0.060930 0.500000
vt 0.667385 0.449451
vt 0.031250 0.525000
vt 0.032820 0.500000
vt 0.029680 0.500000
vt 0.707883 0.461736
s 1
f 66/101/1 2/2/2 4/6/3 67/103/4
f 71/111/5 8/12/6 10/15/7 73/115/8
f 73/115/8 10/15/7 12/18/9 75/119/10
f 75/119/10 12/18/9 14/21/11 77/123/12
f 77/123/12 14/21/11 16/24/13 79/127/14
f 79/127/14 16/24/13 18/27/15 81/131/16
f 81/131/16 18/27/15 20/30/17 83/135/18
f 83/135/18 20/30/17 22/33/19 85/139/20
f 85/139/20 22/33/19 24/36/21 87/143/22
f 87/143/22 24/36/21 26/39/23 89/147/24
f 89/147/24 26/39/23 28/42/25 91/151/26
f 91/151/26 28/42/25 30/45/27 93/155/28
f 93/155/28 30/45/27 32/48/29 95/159/30
f 95/159/30 32/48/29 34/51/31 97/163/32
f 97/163/32 34/51/31 36/54/33 99/167/34
f 99/167/34 36/54/33 38/57/35 101/171/36
f 101/171/36 38/57/35 40/60/37 103/175/38
f 103/175/38 40/60/37 42/63/39 105/179/40
f 105/179/40 42/63/39 44/66/41 107/183/42
f 107/183/42 44/66/41 46/69/43 109/187/44
f 109/187/44 46/69/43 48/72/45 111/191/46
f 111/191/46 48/72/45 50/75/47 113/195/48
f 113/195/48 50/75/47 52/78/49 115/199/50
f 115/199/50 52/78/49 54/81/51 117/203/52
f 117/203/52 54/81/51 56/84/53 119/207/54
f 119/207/54 56/84/53 58/87/55 121/211/56
f 121/211/56 58/87/55 60/90/57 123/215/58
f 123/215/58 60/90/57 62/93/59 125/219/60
f 125/219/60 62/93/59 64/96/61 127/223/62
f 67/103/4 4/6/3 6/9/63 69/107/64
f 69/107/64 6/9/63 8/12/6 71/111/5
f 127/223/62 64/96/61 2/3/2 66/102/1
f 4/7/3 2/4/2 1/1/65 3/5/66
f 6/10/63 4/7/3 3/5/66 5/8/67
f 8/13/6 6/10/63 5/8/67 7/11/68
f 10/16/7 8/13/6 7/11/68 9/14/69
f 12/19/9 10/16/7 9/14/69 11/17/70
f 14/22/11 12/19/9 11/17/70 13/20/71
f 16/25/13 14/22/11 13/20/71 15/23/72
f 18/28/15 16/25/13 15/23/72 17/26/73
f 20/31/17 18/28/15 17/26/73 19/29/74
f 22/34/19 20/31/17 19/29/74 21/32/75
f 24/37/21 22/34/19 21/32/75 23/35/76
f 26/40/23 24/37/21 23/35/76 25/38/77
f 28/43/25 26/40/23 25/38/77 27/41/78
f 30/46/27 28/43/25 27/41/78 29/44/79
f 32/49/29 30/46/27 29/44/79 31/47/80
f 34/52/31 32/49/29 31/47/80 33/50/81
f 36/55/33 34/52/31 33/50/81 35/53/82
f 38/58/35 36/55/33 35/53/82 37/56/83
f 40/61/37 38/58/35 37/56/83 39/59/84
f 42/64/39 40/61/37 39/59/84 41/62/85
f 44/67/41 42/64/39 41/62/85 43/65/86
f 46/70/43 44/67/41 43/65/86 45/68/87
f 48/73/45 46/70/43 45/68/87 47/71/88
f 50/76/47 48/73/45 47/71/88 49/74/89
f 52/79/49 50/76/47 49/74/89 51/77/90
f 54/82/51 52/79/49 51/77/90 53/80/91
f 56/85/53 54/82/51 53/80/91 55/83/92
f 58/88/55 56/85/53 55/83/92 57/86/93
f 60/91/57 58/88/55 57/86/93 59/89/94
f 62/94/59 60/91/57 59/89/94 61/92/95
f 64/97/61 62/94/59 61/92/95 63/95/96
f 2/4/2 64/97/61 63/95/96 1/1/65
f 3/5/66 1/1/65 63/95/96 61/92/95 59/89/94 57/86/93 55/83/92 53/80/91 51/77/90 49/74/89 47/71/88 45/68/87 43/65/86 41/62/85 39/59/84 37/56/83 35/53/82 33/50/81 31/47/80 29/44/79 27/41/78 25/38/77 23/35/76 21/32/75 19/29/74 17/26/73 15/23/72 13/20/71 11/17/70 9/14/69 7/11/68 5/8/67
f 66/101/1 67/103/4 68/104/97 65/98/98
f 67/103/4 69/107/64 70/108/99 68/105/97
f 69/107/64 71/111/5 72/112/100 70/109/99
f 71/111/5 73/115/8 74/116/101 72/113/100
f 73/115/8 75/119/10 76/120/102 74/117/101
f 75/119/10 77/123/12 78/124/103 76/121/102
f 77/123/12 79/127/14 80/128/104 78/125/103
f 79/127/14 81/131/16 82/132/105 80/129/104
f 81/131/16 83/135/18 84/136/106 82/133/105
f 83/135/18 85/139/20 86/140/107 84/137/106
f 85/139/20 87/143/22 88/144/108 86/141/107
f 87/143/22 89/147/24 90/148/109 88/145/108
f 89/147/24 91/151/26 92/152/110 90/149/109
f 91/151/26 93/155/28 94/156/111 92/153/110
f 93/155/28 95/159/30 96/160/112 94/157/111
f 95/159/30 97/163/32 98/164/113 96/161/112
f 97/163/32 99/167/34 100/168/114 98/165/113
f 99/167/34 101/171/36 102/172/115 100/169/114
f 101/171/36 103/175/38 104/176/116 102/173/115
f 103/175/38 105/179/40 106/180/117 104/177/116
f 105/179/40 107/183/42 108/184/118 106/181/117
f 107/183/42 109/187/44 110/188/119 108/185/118
f 109/187/44 111/191/46 112/192/120 110/189/119
f 111/191/46 113/195/48 114/196/121 112/193/120
f 113/195/48 115/199/50 116/200/122 114/197/121
f 115/199/50 117/203/52 118/204/123 116/201/122
f 117/203/52 119/207/54 120/208/124 118/205/123
f 119/207/54 121/211/56 122/212/125 120/209/124
f 121/211/56 123/215/58 124/216/126 122/213/125
f 123/215/58 125/219/60 126/220/127 124/217/126
f 125/219/60 127/223/62 128/224/128 126/221/127
f 127/223/62 66/102/1 65/99/98 128/225/128
f 65/100/98 68/106/97 70/110/99 72/114/100 74/118/101 76/122/102 78/126/103 80/130/104 82/134/105 84/138/106 86/142/107 88/146/108 90/150/109 92/154/110 94/158/111 96/162/112 98/166/113 100/170/114 102/174/115 104/178/116 106/182/117 108/186/118 110/190/119 112/194/120 114/198/121 116/202/122 118/206/123 120/210/124 122/214/125 124/218/126 126/222/127 128/226/128
